<?xml version="1.0" encoding="iso-8859-1"?>
<!-- Generator: Adobe Illustrator 16.0.0, SVG Export Plug-In . SVG Version: 6.00 Build 0)  -->
<!DOCTYPE svg PUBLIC "-//W3C//DTD SVG 1.1//EN" "http://www.w3.org/Graphics/SVG/1.1/DTD/svg11.dtd">
<svg version="1.1" id="Layer_1" xmlns="http://www.w3.org/2000/svg" xmlns:xlink="http://www.w3.org/1999/xlink" x="0px" y="0px"
	 width="45px" height="45px" viewBox="0 0 45 45" style="enable-background:new 0 0 45 45;" xml:space="preserve">
<circle style="fill:#FFFFFF;" cx="22.5" cy="22.499" r="22.5"/>
<path style="fill:#967FB5;" d="M41.869,22.499c0,10.698-8.668,19.372-19.367,19.372c-10.701,0-19.375-8.674-19.375-19.372
	c0-10.697,8.674-19.371,19.375-19.371C33.201,3.128,41.869,11.802,41.869,22.499z"/>
<g style="opacity:0.5;">
	
		<circle style="fill:none;stroke:#FFFFFF;stroke-width:1.5642;stroke-linecap:round;stroke-miterlimit:10;stroke-dasharray:3.7078,2.4719;" cx="22.501" cy="22.499" r="16.725"/>
</g>
<path style="fill:none;stroke:#FFFFFF;stroke-width:4.2681;stroke-miterlimit:10;" d="M33.281,22.499
	c0,5.954-4.827,10.782-10.78,10.782c-5.957,0-10.782-4.828-10.782-10.782c0-5.955,4.825-10.782,10.782-10.782
	C28.454,11.717,33.281,16.544,33.281,22.499z"/>
</svg>
