<?xml version="1.0" encoding="utf-8"?>
<!-- Generator: Adobe Illustrator 15.1.0, SVG Export Plug-In . SVG Version: 6.00 Build 0)  -->
<!DOCTYPE svg PUBLIC "-//W3C//DTD SVG 1.1//EN" "http://www.w3.org/Graphics/SVG/1.1/DTD/svg11.dtd">
<svg version="1.1" id="Layer_1" xmlns="http://www.w3.org/2000/svg" xmlns:xlink="http://www.w3.org/1999/xlink" x="0px" y="0px"
	 width="80px" height="80px" viewBox="0 0 80 80" enable-background="new 0 0 80 80" xml:space="preserve">
<circle fill="none" stroke="#FFFFFF" stroke-width="1.3525" stroke-linecap="round" stroke-linejoin="round" stroke-miterlimit="10" cx="40.079" cy="40.211" r="37.957"/>
<path fill="#FFFFFF" d="M54.083,34.165c0,2.172-1.758,3.927-3.927,3.927c-2.165,0-3.924-1.755-3.924-3.927
	c0-2.167,1.759-3.924,3.924-3.924C52.325,30.241,54.083,31.998,54.083,34.165z"/>
<path fill="#FFFFFF" d="M33.924,34.165c0,2.172-1.757,3.927-3.926,3.927c-2.166,0-3.924-1.755-3.924-3.927
	c0-2.167,1.758-3.924,3.924-3.924C32.167,30.241,33.924,31.998,33.924,34.165z"/>
<path fill="none" stroke="#FFFFFF" stroke-width="1.0802" stroke-linecap="round" stroke-linejoin="round" stroke-miterlimit="10" d="
	M24.675,51.109c0,0,4.854,5.57,15.404,5.57c10.55,0,15.403-5.57,15.403-5.57"/>
</svg>
