<?xml version="1.0" encoding="utf-8"?>
<!-- Generator: Adobe Illustrator 18.0.0, SVG Export Plug-In . SVG Version: 6.00 Build 0)  -->
<!DOCTYPE svg PUBLIC "-//W3C//DTD SVG 1.1//EN" "http://www.w3.org/Graphics/SVG/1.1/DTD/svg11.dtd">
<svg version="1.1" id="Layer_1" xmlns="http://www.w3.org/2000/svg" xmlns:xlink="http://www.w3.org/1999/xlink" x="0px" y="0px"
	 viewBox="0 0 260 130" enable-background="new 0 0 260 130" xml:space="preserve">
<path fill="none" stroke="#FFFFFF" stroke-width="2" stroke-miterlimit="10" d="M66,29.8c0,6.6-5.4,12-12,12c-6.6,0-12-5.4-12-12
	c0-6.6,5.4-12,12-12C60.6,17.7,66,23.1,66,29.8z"/>
<path fill="none" stroke="#FFFFFF" stroke-width="2" stroke-miterlimit="10" d="M53.4,112.3c0,0,2.6,0,4.7,0c2,0,2.4-1.9,2.4-1.9
	s1.3-4.7,2-9.1c0.7-4.5,1.3-10.1,1.3-10.1s-0.2-4.1,1.3-5.6c1.5-1.5,2.2-4.5,2.2-4.5s0.6-1.9,1.1-9.5c0.6-7.6,0.4-13.4,0.4-13.4
	s0.4-2.4-1.9-4.7c-2.2-2.2-13.6-2.4-13.6-2.4h0.3c0,0-11.4,0.2-13.6,2.4c-2.2,2.2-1.9,4.7-1.9,4.7s-0.2,5.8,0.4,13.4
	c0.6,7.6,1.1,9.5,1.1,9.5s0.7,3,2.2,4.5c1.5,1.5,1.3,5.6,1.3,5.6s0.6,5.6,1.3,10.1c0.7,4.5,2,9.1,2,9.1s0.4,1.9,2.4,1.9
	c2.1,0,4.7,0,4.7,0"/>
<path fill="#3AAF72" d="M118.2,29.8c0,6.6-5.4,12-12,12c-6.6,0-12-5.4-12-12c0-6.6,5.4-12,12-12C112.9,17.7,118.2,23.1,118.2,29.8z"
	/>
<path fill="#3AAF72" d="M105.6,112.3c0,0,2.6,0,4.7,0c2.1,0,2.4-1.9,2.4-1.9s1.3-4.7,2.1-9.1c0.7-4.5,1.3-10.1,1.3-10.1
	s-0.2-4.1,1.3-5.6c1.5-1.5,2.2-4.5,2.2-4.5s0.6-1.9,1.1-9.5c0.6-7.6,0.4-13.4,0.4-13.4s0.4-2.4-1.9-4.7c-2.2-2.2-13.6-2.4-13.6-2.4
	h0.3c0,0-11.4,0.2-13.6,2.4c-2.2,2.2-1.9,4.7-1.9,4.7s-0.2,5.8,0.4,13.4c0.6,7.6,1.1,9.5,1.1,9.5s0.7,3,2.2,4.5
	c1.5,1.5,1.3,5.6,1.3,5.6s0.6,5.6,1.3,10.1c0.7,4.5,2.1,9.1,2.1,9.1s0.4,1.9,2.4,1.9c2,0,4.7,0,4.7,0"/>
<path fill="#F7AD21" d="M170.2,29.8c0,6.6-5.4,12-12,12c-6.6,0-12-5.4-12-12c0-6.6,5.4-12,12-12C164.9,17.7,170.2,23.1,170.2,29.8z"
	/>
<path fill="#F7AD21" d="M157.6,112.3c0,0,2.6,0,4.7,0c2.1,0,2.4-1.9,2.4-1.9s1.3-4.7,2.1-9.1c0.7-4.5,1.3-10.1,1.3-10.1
	s-0.2-4.1,1.3-5.6c1.5-1.5,2.2-4.5,2.2-4.5s0.6-1.9,1.1-9.5c0.6-7.6,0.4-13.4,0.4-13.4s0.4-2.4-1.9-4.7c-2.2-2.2-13.6-2.4-13.6-2.4
	h0.3c0,0-11.4,0.2-13.6,2.4c-2.2,2.2-1.9,4.7-1.9,4.7s-0.2,5.8,0.4,13.4c0.6,7.6,1.1,9.5,1.1,9.5s0.7,3,2.2,4.5
	c1.5,1.5,1.3,5.6,1.3,5.6s0.6,5.6,1.3,10.1c0.7,4.5,2.1,9.1,2.1,9.1s0.4,1.9,2.4,1.9c2,0,4.7,0,4.7,0"/>
<path fill="#ED6853" d="M222.9,29.8c0,6.6-5.4,12-12,12c-6.6,0-12-5.4-12-12c0-6.6,5.4-12,12-12C217.5,17.7,222.9,23.1,222.9,29.8z"
	/>
<path fill="#ED6853" d="M210.3,112.3c0,0,2.6,0,4.7,0c2.1,0,2.4-1.9,2.4-1.9s1.3-4.7,2.1-9.1c0.7-4.5,1.3-10.1,1.3-10.1
	s-0.2-4.1,1.3-5.6c1.5-1.5,2.2-4.5,2.2-4.5s0.6-1.9,1.1-9.5c0.6-7.6,0.4-13.4,0.4-13.4s0.4-2.4-1.9-4.7c-2.2-2.2-13.6-2.4-13.6-2.4
	h0.3c0,0-11.4,0.2-13.6,2.4c-2.2,2.2-1.9,4.7-1.9,4.7s-0.2,5.8,0.4,13.4c0.6,7.6,1.1,9.5,1.1,9.5s0.7,3,2.2,4.5
	c1.5,1.5,1.3,5.6,1.3,5.6s0.6,5.6,1.3,10.1c0.7,4.5,2.1,9.1,2.1,9.1s0.4,1.9,2.4,1.9c2,0,4.7,0,4.7,0"/>
</svg>
