<?xml version="1.0" encoding="utf-8"?>
<!-- Generator: Adobe Illustrator 15.1.0, SVG Export Plug-In . SVG Version: 6.00 Build 0)  -->
<!DOCTYPE svg PUBLIC "-//W3C//DTD SVG 1.1//EN" "http://www.w3.org/Graphics/SVG/1.1/DTD/svg11.dtd">
<svg version="1.1" id="Layer_1" xmlns="http://www.w3.org/2000/svg" xmlns:xlink="http://www.w3.org/1999/xlink" x="0px" y="0px"
	 width="80px" height="80px" viewBox="0 0 80 80" enable-background="new 0 0 80 80" xml:space="preserve">
<circle fill="none" stroke="#FFFFFF" stroke-width="1.3525" stroke-linecap="round" stroke-linejoin="round" stroke-miterlimit="10" cx="40.079" cy="40.211" r="37.957"/>
<path fill="#FFFFFF" d="M54.083,34.165c0,2.172-1.758,3.927-3.926,3.927c-2.166,0-3.924-1.755-3.924-3.927
	c0-2.167,1.758-3.924,3.924-3.924C52.325,30.241,54.083,31.998,54.083,34.165z"/>
<path fill="#FFFFFF" d="M33.925,34.165c0,2.172-1.758,3.927-3.926,3.927c-2.166,0-3.924-1.755-3.924-3.927
	c0-2.167,1.758-3.924,3.924-3.924C32.167,30.241,33.925,31.998,33.925,34.165z"/>
<path fill="none" stroke="#FFFFFF" stroke-linecap="round" stroke-linejoin="round" stroke-miterlimit="10" d="M22.675,57.283
	c0,0,6.854-6.142,17.404-6.142s17.404,6.142,17.404,6.142"/>
<line fill="none" stroke="#FFFFFF" stroke-linecap="round" stroke-linejoin="round" stroke-miterlimit="10" x1="16.563" y1="19.5" x2="32.188" y2="24.5"/>
<line fill="none" stroke="#FFFFFF" stroke-linecap="round" stroke-linejoin="round" stroke-miterlimit="10" x1="62.854" y1="19.5" x2="47.229" y2="24.5"/>
</svg>
